<?xml version="1.0" encoding="utf-8"?>
<!-- Generator: Adobe Illustrator 15.0.0, SVG Export Plug-In . SVG Version: 6.00 Build 0)  -->
<!DOCTYPE svg PUBLIC "-//W3C//DTD SVG 1.1//EN" "http://www.w3.org/Graphics/SVG/1.1/DTD/svg11.dtd">
<svg version="1.1" id="Layer_1" xmlns="http://www.w3.org/2000/svg" xmlns:xlink="http://www.w3.org/1999/xlink" x="0px" y="0px"
	 width="320px" height="372px" viewBox="0 0 320 372" enable-background="new 0 0 320 372" xml:space="preserve">
<ellipse opacity="0" fill="#FFFFFF" cx="-172.23" cy="221.338" rx="5.912" ry="6.17"/>
<radialGradient id="SVGID_1_" cx="170.0879" cy="477.1895" r="137.9254" gradientTransform="matrix(0.7415 0 0 0.0908 33.8114 294.4369)" gradientUnits="userSpaceOnUse">
	<stop  offset="0" style="stop-color:#808080;stop-opacity:0.62"/>
	<stop  offset="0.1532" style="stop-color:#868686;stop-opacity:0.525"/>
	<stop  offset="0.3662" style="stop-color:#989898;stop-opacity:0.3929"/>
	<stop  offset="0.6144" style="stop-color:#B6B6B6;stop-opacity:0.2391"/>
	<stop  offset="0.887" style="stop-color:#DFDFDF;stop-opacity:0.0701"/>
	<stop  offset="1" style="stop-color:#F2F2F2;stop-opacity:0"/>
</radialGradient>
<path fill="url(#SVGID_1_)" d="M303.834,337.757c0,5.876-64.432,10.637-143.904,10.637c-79.475,0-143.901-4.761-143.901-10.637
	c0-5.878,64.427-10.642,143.901-10.642C239.402,327.115,303.834,331.879,303.834,337.757z"/>
<g>
	<g>
		<path fill="#FF1785" d="M155.738,144.364c0,65.782-16.994,107.304-37.955,107.304c-20.963,0-37.231-41.533-37.231-107.313
			c0-65.782,16.269-130.898,37.231-130.898C138.744,13.458,155.738,78.585,155.738,144.364z"/>
		<path fill="#FF1785" d="M248.129,144.364c0,65.782-16.992,107.304-37.957,107.304c-20.961,0-37.225-41.533-37.225-107.313
			c0-65.782,16.264-130.898,37.225-130.898C231.137,13.458,248.129,78.585,248.129,144.364z"/>
	</g>
	<path fill="#FF1785" d="M256.17,208.135c0,53.152-43.088,96.24-96.236,96.24c-53.152,0-96.241-43.088-96.241-96.24
		c0-53.15,43.089-96.238,96.241-96.238C213.082,111.896,256.17,154.984,256.17,208.135z"/>
	<ellipse fill="#FFFFFF" cx="202.306" cy="199.17" rx="17.642" ry="18.408"/>
	<path fill="#FFFFFF" d="M142.012,206.473c0,11.674-3.604-8.352-20.254-8.549c-16.672-0.195-20.252,20.223-20.252,8.549
		c0-11.67,9.066-21.135,20.252-21.135C132.945,185.338,142.012,194.803,142.012,206.473z"/>
</g>
</svg>
