<?xml version="1.0" encoding="utf-8"?>
<!-- Generator: Adobe Illustrator 15.0.0, SVG Export Plug-In . SVG Version: 6.00 Build 0)  -->
<!DOCTYPE svg PUBLIC "-//W3C//DTD SVG 1.1//EN" "http://www.w3.org/Graphics/SVG/1.1/DTD/svg11.dtd">
<svg version="1.1" id="Layer_1" xmlns="http://www.w3.org/2000/svg" xmlns:xlink="http://www.w3.org/1999/xlink" x="0px" y="0px"
	 width="320px" height="372px" viewBox="0 0 320 372" enable-background="new 0 0 320 372" xml:space="preserve">
<g>
	<path fill="#009161" d="M38.639,164.566l8.955,33.892c1.791,7.44,3.582,14.329,4.822,21.217h0.414
		c1.516-6.75,3.72-13.914,5.924-21.079l10.884-34.029h10.195l10.333,33.341c2.48,7.991,4.409,15.018,5.924,21.768h0.413
		c1.103-6.75,2.894-13.776,5.098-21.63l9.506-33.479h11.986l-21.493,66.682H90.579l-10.195-31.825
		c-2.342-7.439-4.271-14.053-5.924-21.905h-0.276c-1.653,7.99-3.72,14.879-6.062,22.043l-10.746,31.688H46.354L26.24,164.566H38.639
		z"/>
	<path fill="#009161" d="M167.453,182.614c0-7.026-0.138-12.537-0.552-18.048h10.746l0.689,11.021h0.275
		c3.307-6.199,11.021-12.399,22.044-12.399c9.23,0,23.559,5.511,23.559,28.381v39.678h-12.124V192.81
		c0-10.746-3.995-19.701-15.431-19.701c-7.853,0-14.053,5.648-16.257,12.399c-0.551,1.516-0.826,3.582-0.826,5.648v40.092h-12.124
		V182.614z"/>
	<path fill="#009161" d="M255.9,195.152h0.276c1.653-2.343,3.857-5.235,5.786-7.578l19.701-23.008h14.466l-25.625,27.417
		l29.345,39.265h-14.879l-22.87-31.963l-6.2,6.889v25.074h-11.985V133.43H255.9V195.152z"/>
	<g>
		<g>
			<path fill="#009161" d="M141.08,127.522c0,10.708-2.767,17.467-6.178,17.467c-3.414,0-6.06-6.76-6.06-17.467
				c0-10.708,2.646-21.309,6.06-21.309C138.313,106.214,141.08,116.814,141.08,127.522z"/>
			<path fill="#009161" d="M156.121,127.522c0,10.708-2.769,17.467-6.179,17.467c-3.414,0-6.061-6.76-6.061-17.467
				c0-10.708,2.646-21.309,6.061-21.309C153.352,106.214,156.121,116.814,156.121,127.522z"/>
		</g>
		<circle fill="#009161" cx="141.762" cy="137.903" r="15.666"/>
		<ellipse fill="#FFFFFF" cx="148.66" cy="136.445" rx="2.872" ry="2.997"/>
		<path fill="#FFFFFF" d="M138.845,137.632c0,1.901-0.587-1.358-3.297-1.39c-2.713-0.032-3.296,3.291-3.296,1.39
			c0-1.897,1.475-3.44,3.296-3.44C137.369,134.191,138.845,135.735,138.845,137.632z"/>
	</g>
	<rect x="135.7" y="164.248" fill="#009161" width="12.124" height="67"/>
</g>
</svg>
